#!OML:ASF F:\VICON\USERDATA\INSTALL\rory3\rory3.ASF
:FULLY-SPECIFIED
:DEGREES
61
root 0.679308 18.2535 -2.54288 4.2667 -6.70181 1.4512
lowerback 14.7842 0.52275 -3.92528
upperback -0.617144 0.103021 1.10947
thorax -9.00308 0.263351 3.40063
lowerneck -20.3604 -2.5399 -1.47664
upperneck 9.44686 -3.47693 3.22696
head 6.24248 -1.45831 0.894174
rclavicle 9.44227e-015 1.63003e-014
rhumerus -57.5236 14.5909 -100.313
rradius 104.444
rwrist -11.8984
rhand -19.6843 37.6024
rfingers 7.12502
rthumb 6.64459 7.72665
lclavicle 9.44227e-015 1.63003e-014
lhumerus -31.3543 -15.8455 94.4996
lradius 118.752
lwrist 31.0539
lhand -29.9728 0.963909
lfingers 7.12502
lthumb -3.29123 30.9183
rfemur -39.9231 3.00809 22.6799
rtibia 52.615
rfoot -10.1988 -1.03428
rtoes -10.2546
lfemur 8.93141 2.1649 -27.6828
ltibia 29.0657
lfoot 13.6663 -13.5711
ltoes -23.4758
62
root 0.703456 18.3585 -2.02221 4.77133 -5.56225 1.64643
lowerback 13.969 -0.195972 -3.23429
upperback -0.814626 -0.714993 1.01441
thorax -8.68649 -0.169522 3.07264
lowerneck -20.3623 -2.47494 -1.52188
upperneck 9.7284 -3.39089 3.25727
head 6.33325 -1.41284 0.919837
rclavicle 2.79292e-014 3.97569e-015
rhumerus -58.0019 14.2246 -100.229
rradius 104.254
rwrist -11.4243
rhand -19.9459 37.968
rfingers 7.12502
rthumb 6.392 8.08441
lclavicle 2.79292e-014 3.97569e-015
lhumerus -31.6917 -15.85 94.1426
lradius 118.926
lwrist 30.567
lhand -29.6612 1.82912
lfingers 7.12502
lthumb -2.99031 31.7879
rfemur -39.7119 2.13698 22.5353
rtibia 48.3056
rfoot -11.0012 -0.56173
rtoes -11.5858
lfemur 9.96758 -0.0611021 -28.0643
ltibia 27.4245
lfoot 18.154 -13.4308
ltoes -18.7266
63
root 0.692831 18.4209 -1.52999 4.64446 -6.45625 1.81334
lowerback 13.9731 -0.0679672 -3.57603
upperback -0.897183 -0.598199 1.0736
thorax -8.7851 -0.0922127 3.30742
lowerneck -20.2101 -2.45868 -1.75456
upperneck 9.99788 -3.30983 3.21604
head 6.39696 -1.3856 0.953186
rclavicle -9.98893e-015 -2.78299e-015
rhumerus -58.6964 13.8995 -100.032
rradius 104.34
rwrist -11.146
rhand -19.7669 38.187
rfingers 7.12502
rthumb 6.56487 8.30876
lclavicle -9.98893e-015 -2.78299e-015
lhumerus -32.1516 -15.7139 93.9888
lradius 119.006
lwrist 29.9051
lhand -29.2055 2.31608
lfingers 7.12502
lthumb -2.55017 32.2806
rfemur -39.0316 3.1785 22.4315
rtibia 44.0444
rfoot -9.94592 -0.0205493
rtoes -18.774
lfemur 11.2862 -0.378785 -28.5874
ltibia 26.3906
lfoot 22.086 -14.1518
ltoes -16.4365
64
root 0.694436 18.4856 -1.03151 4.77087 -6.87923 1.78451
lowerback 13.8539 -0.0970548 -3.38818
upperback -1.17619 -0.599751 1.12609
thorax -9.02218 -0.0906777 3.2593
lowerneck -19.6964 -2.50308 -1.83859
upperneck 10.1226 -3.3264 3.0104
head 6.35227 -1.41922 0.90203
rclavicle -1.19768e-014 -7.55382e-015
rhumerus -59.6429 13.3308 -99.9
rradius 104.558
rwrist -10.9058
rhand -19.9575 38.2278
rfingers 7.12502
rthumb 6.38082 8.34393
lclavicle -1.19768e-014 -7.55382e-015
lhumerus -32.8169 -15.8351 93.9885
lradius 118.972
lwrist 29.2604
lhand -28.9366 2.47312
lfingers 7.12502
lthumb -2.29052 32.4406
rfemur -38.453 3.65625 22.5911
rtibia 39.7606
rfoot -8.82779 0.539454
rtoes -22.4663
lfemur 11.9244 -0.906561 -28.862
ltibia 26.2603
lfoot 24.3905 -16.0517
ltoes -18.3057
65
root 0.697688 18.5603 -0.52167 5.0255 -6.16 1.91025
lowerback 13.6281 -0.475758 -2.95801
upperback -1.49533 -1.0326 1.07817
thorax -9.21273 -0.313244 3.05493
lowerneck -19.4037 -2.58092 -1.88618
upperneck 10.1889 -3.40876 2.9054
head 6.32711 -1.47242 0.868904
rclavicle 2.79789e-014 -6.36111e-015
rhumerus -60.2582 12.6197 -99.7495
rradius 104.552
rwrist -10.8057
rhand -19.7619 38.4685
rfingers 7.12502
rthumb 6.56966 8.59044
lclavicle 2.79789e-014 -6.36111e-015
lhumerus -33.4313 -16.1376 93.9601
lradius 118.722
lwrist 28.8075
lhand -29.016 1.99271
lfingers 7.12502
lthumb -2.36721 31.9593
rfemur -37.8067 3.2705 22.5514
rtibia 35.6591
rfoot -8.01958 0.693545
rtoes -23.865
lfemur 12.1197 -2.08876 -29.0108
ltibia 26.8241
lfoot 25.7048 -17.0847
ltoes -18.3652
66
root 0.695718 18.6062 -0.0219347 5.49189 -5.25226 2.00807
lowerback 13.171 -0.940911 -2.50203
upperback -1.81918 -1.57498 1.00802
thorax -9.27573 -0.595176 2.82751
lowerneck -19.5988 -2.55709 -1.80601
upperneck 10.6767 -3.39223 2.80182
head 6.51272 -1.46434 0.820815
rclavicle 1.94312e-014 2.14687e-014
rhumerus -60.7175 12.0167 -99.7221
rradius 104.581
rwrist -10.6144
rhand -19.6208 38.8173
rfingers 7.12502
rthumb 6.70592 8.94348
lclavicle 1.94312e-014 2.14687e-014
lhumerus -34.0028 -16.3809 93.8125
lradius 118.442
lwrist 28.6192
lhand -29.3338 1.57295
lfingers 7.12502
lthumb -2.6741 31.5359
rfemur -37.4949 2.84514 22.5361
rtibia 32.0314
rfoot -7.25226 0.278336
rtoes -22.908
lfemur 12.0388 -3.47402 -29.022
ltibia 27.6421
lfoot 27.2403 -17.5039
ltoes -13.8284
67
root 0.677616 18.6272 0.456035 5.487 -5.90143 2.16886
lowerback 13.0805 -0.806731 -2.79414
upperback -1.83605 -1.44687 0.952917
thorax -9.24544 -0.52031 2.90505
lowerneck -19.7171 -2.5549 -1.76431
upperneck 10.8395 -3.38946 2.71536
head 6.5822 -1.46653 0.784733
rclavicle 6.41081e-015 7.55382e-015
rhumerus -60.8651 11.5337 -99.7061
rradius 104.691
rwrist -10.3842
rhand -19.7484 38.4665
rfingers 7.12502
rthumb 6.58273 8.58876
lclavicle 6.41081e-015 7.55382e-015
lhumerus -34.2377 -16.6163 93.6425
lradius 117.966
lwrist 28.3649
lhand -29.3857 1.4205
lfingers 7.12502
lthumb -2.72422 31.3828
rfemur -36.9834 3.35777 22.6094
rtibia 29.1303
rfoot -7.05075 -0.357321
rtoes -17.8865
lfemur 12.0312 -3.59836 -29.3844
ltibia 28.7912
lfoot 30.2283 -17.3358
ltoes -3.28899
68
root 0.654264 18.603 0.912895 4.86406 -7.85264 2.77368
lowerback 13.5449 -0.131813 -4.04773
upperback -1.55665 -0.775343 0.855516
thorax -9.24432 -0.138238 3.37862
lowerneck -20.2451 -2.58678 -1.87926
upperneck 11.197 -3.39412 2.66373
head 6.78522 -1.4709 0.77961
rclavicle 1.33186e-014 1.59028e-015
rhumerus -60.6541 11.2152 -99.5747
rradius 104.819
rwrist -10.0837
rhand -19.7574 38.0548
rfingers 7.12502
rthumb 6.57405 8.17681
lclavicle 1.33186e-014 1.59028e-015
lhumerus -34.2732 -16.6943 93.5106
lradius 117.493
lwrist 28.1715
lhand -29.1147 1.88062
lfingers 7.12502
lthumb -2.46253 31.8462
rfemur -36.2464 4.27721 22.4609
rtibia 27.1616
rfoot -5.6883 -0.265798
rtoes -16.9133
lfemur 12.6253 -2.45645 -30.4978
ltibia 30.1681
lfoot 33.2268 -17.8853
ltoes 5.72337
